<?xml version="1.0" standalone="no"?>
<!DOCTYPE svg PUBLIC "-//W3C//DTD SVG 20010904//EN"
 "http://www.w3.org/TR/2001/REC-SVG-20010904/DTD/svg10.dtd">
<svg version="1.0" xmlns="http://www.w3.org/2000/svg"
 width="512.000000pt" height="512.000000pt" viewBox="0 0 512.000000 512.000000"
 preserveAspectRatio="xMidYMid meet">
<metadata>
Created by potrace 1.11, written by Peter Selinger 2001-2013
</metadata>
<g transform="translate(0.000000,512.000000) scale(0.100000,-0.100000)"
fill="#000000" stroke="none">
<path d="M2454 4138 c-54 -73 -102 -134 -106 -136 -5 -2 -8 -7 -8 -11 0 -6
-196 -274 -360 -491 -19 -24 -227 -304 -585 -785 -367 -495 -787 -1058 -815
-1095 -10 -14 -74 -99 -141 -190 -356 -480 -413 -556 -427 -572 -14 -17 108
-18 2547 -18 l2562 0 -28 38 c-15 20 -31 39 -35 40 -5 2 -8 10 -8 17 0 7 -3
15 -7 17 -5 2 -73 91 -153 198 -80 107 -150 202 -157 210 -7 8 -37 49 -67 90
-30 41 -59 80 -63 85 -5 6 -43 57 -86 115 -43 58 -86 116 -97 130 -10 14 -43
59 -74 100 -30 41 -59 80 -63 85 -4 6 -60 80 -123 165 -63 85 -120 162 -127
170 -7 8 -80 107 -164 220 -130 176 -244 329 -272 365 -4 5 -59 80 -123 165
-63 85 -123 166 -134 180 -10 14 -87 118 -172 231 -481 649 -602 809 -608 809
-4 0 -51 -60 -106 -132z m155 -205 c23 -32 123 -166 221 -298 99 -132 183
-244 187 -250 5 -5 30 -39 56 -75 27 -36 60 -80 75 -99 15 -18 30 -39 34 -46
7 -11 285 -386 305 -410 5 -5 26 -35 48 -65 22 -30 42 -57 45 -60 3 -3 30 -39
60 -80 30 -41 60 -82 67 -90 25 -32 140 -187 163 -220 20 -29 21 -32 5 -20
-11 8 -22 17 -25 20 -14 15 -164 123 -228 165 -64 41 -318 177 -332 177 -3 0
-20 6 -38 14 -88 36 -298 94 -397 108 -23 4 -52 9 -65 12 -57 14 -396 12 -485
-2 -340 -55 -676 -207 -997 -451 -31 -24 -59 -43 -63 -43 -5 0 24 43 62 90 7
8 75 101 152 205 77 105 144 195 148 200 12 15 261 349 547 735 39 52 74 100
78 105 5 6 53 71 108 145 55 74 107 144 116 155 8 11 34 46 56 78 23 31 44 57
47 57 4 0 26 -26 50 -57z m548 -1719 c118 -39 277 -118 383 -190 151 -102 141
-90 100 -124 -50 -42 -48 -41 -126 -93 -158 -104 -398 -203 -587 -242 -125
-25 -129 -24 -75 23 88 75 165 189 183 272 23 101 3 228 -53 333 -48 93 -50
88 28 66 38 -10 104 -30 147 -45z m-1004 24 c-10 -18 -21 -34 -25 -36 -5 -2
-8 -7 -8 -12 0 -4 -8 -25 -17 -46 -9 -22 -18 -43 -19 -49 -1 -5 -7 -29 -12
-53 -10 -41 -9 -138 0 -172 20 -73 58 -149 94 -186 6 -7 21 -25 35 -40 14 -16
44 -46 67 -67 34 -30 38 -36 20 -32 -13 2 -34 7 -48 9 -224 39 -483 143 -661
266 -25 17 -120 89 -132 100 -7 7 23 34 108 98 43 32 220 131 245 137 3 1 23
9 45 19 37 16 165 60 245 84 19 5 45 10 58 11 l23 1 -18 -32z m333 -11 c4 -17
8 -35 8 -39 1 -3 4 -10 9 -14 13 -13 7 -21 -25 -35 -48 -20 -87 -64 -100 -114
l-12 -45 -59 0 -59 0 7 42 c11 62 38 118 76 157 37 36 128 93 140 85 4 -2 11
-19 15 -37z m-791 3 c-3 -5 -10 -10 -16 -10 -5 0 -39 -18 -75 -40 -36 -22 -68
-40 -71 -40 -3 0 -15 -8 -28 -17 -12 -10 -33 -25 -45 -33 -35 -23 -165 -127
-178 -142 -16 -19 9 -45 143 -146 51 -39 264 -154 340 -184 28 -11 64 -25 80
-33 63 -27 173 -62 255 -80 8 -2 30 -8 48 -14 18 -5 35 -10 37 -10 7 0 96 -13
120 -17 112 -21 422 -21 530 -1 11 3 36 7 55 11 59 11 73 13 140 31 162 41
373 130 501 211 21 13 43 24 49 24 5 0 10 4 10 9 0 5 14 14 30 21 17 7 30 16
30 21 0 5 4 9 10 9 12 0 180 129 180 138 -1 8 -172 144 -220 174 -43 27 -55
34 -150 86 -41 23 -73 42 -70 42 3 0 48 -14 100 -31 52 -16 104 -32 115 -34
11 -3 100 -32 197 -65 98 -34 184 -58 190 -54 7 4 8 3 4 -4 -4 -7 -3 -12 3
-12 5 0 26 -24 47 -52 21 -29 41 -55 44 -58 3 -3 34 -45 69 -95 36 -49 74
-102 85 -116 12 -15 30 -39 41 -54 11 -15 88 -119 170 -231 270 -364 305 -412
305 -418 0 -3 -995 -6 -2210 -6 -1215 0 -2210 2 -2210 5 0 5 226 313 255 348
8 9 15 21 15 26 0 5 4 11 8 13 4 2 73 91 152 198 80 107 148 200 153 205 4 6
46 62 92 125 47 63 95 119 108 123 23 8 560 185 565 186 2 1 0 -3 -3 -9z"/>
</g>
</svg>
